<svg version="1.1" viewBox="0.0 0.0 1712.0629921259842 100.0" fill="none" stroke="none" stroke-linecap="square" stroke-miterlimit="10" xmlns:xlink="http://www.w3.org/1999/xlink" xmlns="http://www.w3.org/2000/svg"><clipPath id="p.0"><path d="m0 0l1712.063 0l0 100.0l-1712.063 0l0 -100.0z" clip-rule="nonzero"/></clipPath><g clip-path="url(#p.0)"><path fill="#000000" fill-opacity="0.0" d="m0 0l1712.063 0l0 100.0l-1712.063 0z" fill-rule="evenodd"/><path fill="#000000" fill-opacity="0.0" d="m0 0l1713.8898 0l0 93.732285l-1713.8898 0z" fill-rule="evenodd"/><path fill="#000000" d="m24.265625 39.036247q3.65625 0 6.796875 1.890625q3.15625 1.890625 4.78125 5.375q1.640625 3.46875 1.640625 7.59375q0 5.953125 -3.03125 9.96875q-3.65625 4.859375 -10.09375 4.859375q-6.3125 0 -9.734375 -4.4375q-3.40625 -4.4375 -3.40625 -10.265625q0 -6.03125 3.484375 -10.5q3.484375 -4.484375 9.5625 -4.484375zm0.125 2.125q-1.53125 0 -2.625 1.15625q-1.09375 1.15625 -1.4375 4.5625q-0.34375 3.390625 -0.34375 9.4375q0 3.203125 0.421875 6.0q0.328125 2.125 1.40625 3.234375q1.078125 1.09375 2.453125 1.09375q1.359375 0 2.25 -0.734375q1.171875 -1.03125 1.5625 -2.859375q0.59375 -2.84375 0.59375 -11.484375q0 -5.09375 -0.578125 -7.0q-0.5625 -1.90625 -1.671875 -2.765625q-0.765625 -0.640625 -2.03125 -0.640625zm28.179688 -13.890625l0 15.421875q3.53125 -3.65625 7.71875 -3.65625q2.875 0 5.421875 1.703125q2.546875 1.6875 3.984375 4.8125q1.4375 3.109375 1.4375 7.171875q0 4.578125 -1.828125 8.328125q-1.828125 3.75 -4.890625 5.71875q-3.046875 1.953125 -6.96875 1.953125q-2.265625 0 -4.03125 -0.71875q-1.765625 -0.71875 -3.484375 -2.34375l-4.640625 3.03125l-1.015625 0l0 -35.609375q0 -2.421875 -0.203125 -3.0q-0.296875 -0.828125 -0.953125 -1.234375q-0.640625 -0.40625 -2.171875 -0.46875l0 -1.109375l11.625 0zm0 18.09375l0 12.453125q0 3.796875 0.1875 4.859375q0.296875 1.765625 1.421875 2.859375q1.140625 1.09375 2.90625 1.09375q1.53125 0 2.625 -0.875q1.09375 -0.875 1.828125 -3.4375q0.734375 -2.578125 0.734375 -9.296875q0 -6.4375 -1.625 -8.828125q-1.15625 -1.734375 -3.140625 -1.734375q-2.578125 0 -4.9375 2.90625zm31.857788 -19.015625q1.921875 0 3.25 1.328125q1.34375 1.328125 1.34375 3.21875q0 1.921875 -1.359375 3.265625q-1.34375 1.34375 -3.234375 1.34375q-1.875 0 -3.234375 -1.34375q-1.34375 -1.34375 -1.34375 -3.265625q0 -1.890625 1.328125 -3.21875q1.34375 -1.328125 3.25 -1.328125zm4.203125 13.53125l0 28.984375q0 4.078125 -0.515625 6.015625q-0.75 2.828125 -2.984375 4.53125q-2.21875 1.703125 -5.875 1.703125q-3.6875 0 -5.4375 -1.5q-1.75 -1.5 -1.75 -3.625q0 -1.3125 0.921875 -2.296875q0.90625 -0.96875 2.125 -0.96875q1.140625 0 1.796875 0.671875q0.65625 0.6875 0.65625 2.03125q0 0.359375 -0.03125 0.84375q-0.046875 0.625 -0.046875 0.859375q0 1.046875 0.46875 1.5625q0.484375 0.5 1.234375 0.5q0.6875 0 1.171875 -0.59375q0.5 -0.59375 0.5 -1.703125q0 -0.59375 -0.171875 -2.421875q-0.296875 -3.328125 -0.328125 -4.015625l-0.09375 -7.09375l0 -17.3125l0.03125 -1.5625q0 -1.890625 -0.65625 -2.59375q-0.640625 -0.703125 -2.703125 -0.90625l0 -1.109375l11.6875 0zm31.34462 13.0l-15.359375 0q0.265625 5.5625 2.96875 8.796875q2.0625 2.484375 4.96875 2.484375q1.796875 0 3.265625 -1.0q1.46875 -1.0 3.140625 -3.609375l1.015625 0.65625q-2.28125 4.640625 -5.03125 6.578125q-2.75 1.9375 -6.375 1.9375q-6.234375 0 -9.4375 -4.796875q-2.578125 -3.859375 -2.578125 -9.578125q0 -7.015625 3.78125 -11.15625q3.796875 -4.15625 8.890625 -4.15625q4.25 0 7.375 3.5q3.140625 3.484375 3.375 10.34375zm-7.359375 -2.015625q0 -4.8125 -0.53125 -6.609375q-0.515625 -1.796875 -1.625 -2.734375q-0.640625 -0.53125 -1.6875 -0.53125q-1.546875 0 -2.546875 1.53125q-1.765625 2.65625 -1.765625 7.296875l0 1.046875l8.15625 0zm33.720352 9.796875l0.921875 0.71875q-1.984375 3.71875 -4.9375 5.53125q-2.9375 1.8125 -6.265625 1.8125q-5.59375 0 -8.953125 -4.21875q-3.359375 -4.234375 -3.359375 -10.15625q0 -5.71875 3.0625 -10.0625q3.6875 -5.25 10.15625 -5.25q4.34375 0 6.890625 2.1875q2.5625 2.1875 2.5625 4.890625q0 1.703125 -1.03125 2.71875q-1.03125 1.015625 -2.703125 1.015625q-1.765625 0 -2.921875 -1.15625q-1.15625 -1.171875 -1.421875 -4.171875q-0.1875 -1.890625 -0.875 -2.640625q-0.6875 -0.734375 -1.609375 -0.734375q-1.4375 0 -2.453125 1.515625q-1.5625 2.3125 -1.5625 7.078125q0 3.953125 1.25 7.5625q1.265625 3.59375 3.453125 5.375q1.640625 1.28125 3.890625 1.28125q1.46875 0 2.78125 -0.6875q1.328125 -0.6875 3.125 -2.609375zm15.470352 -31.015625l0 10.234375l6.65625 0l0 2.96875l-6.65625 0l0 17.28125q0 2.421875 0.21875 3.125q0.234375 0.703125 0.796875 1.140625q0.578125 0.4375 1.0625 0.4375q1.9375 0 3.671875 -2.96875l0.90625 0.65625q-2.4375 5.75 -7.875 5.75q-2.671875 0 -4.515625 -1.484375q-1.84375 -1.484375 -2.34375 -3.3125q-0.296875 -1.015625 -0.296875 -5.5l0 -15.125l-3.65625 0l0 -1.046875q3.765625 -2.671875 6.421875 -5.59375q2.65625 -2.9375 4.625 -6.5625l0.984375 0z" fill-rule="nonzero"/><path fill="#000000" d="m201.57758 25.301872l-14.703125 43.421875l-2.390625 0l14.703125 -43.421875l2.390625 0zm18.714706 0.953125l6.6875 0l3.171875 10.328125l-1.046875 0l-8.8125 -10.328125zm34.34462 37.671875q-4.21875 3.265625 -5.296875 3.78125q-1.609375 0.734375 -3.4375 0.734375q-2.84375 0 -4.6875 -1.9375q-1.84375 -1.953125 -1.84375 -5.125q0 -2.0 0.890625 -3.46875q1.234375 -2.046875 4.265625 -3.828125q3.046875 -1.796875 10.109375 -4.375l0 -1.078125q0 -4.109375 -1.296875 -5.625q-1.296875 -1.53125 -3.78125 -1.53125q-1.890625 0 -3.0 1.015625q-1.140625 1.015625 -1.140625 2.328125l0.0625 1.734375q0 1.390625 -0.703125 2.140625q-0.703125 0.734375 -1.84375 0.734375q-1.109375 0 -1.8125 -0.765625q-0.703125 -0.78125 -0.703125 -2.125q0 -2.578125 2.625 -4.734375q2.640625 -2.15625 7.40625 -2.15625q3.65625 0 5.984375 1.21875q1.765625 0.9375 2.609375 2.90625q0.546875 1.296875 0.546875 5.28125l0 9.3125q0 3.921875 0.140625 4.8125q0.15625 0.875 0.5 1.171875q0.34375 0.296875 0.796875 0.296875q0.46875 0 0.828125 -0.203125q0.625 -0.390625 2.421875 -2.1875l0 1.671875q-3.34375 4.484375 -6.40625 4.484375q-1.46875 0 -2.34375 -1.015625q-0.859375 -1.015625 -0.890625 -3.46875zm0 -1.953125l0 -10.4375q-4.515625 1.796875 -5.828125 2.53125q-2.375 1.328125 -3.390625 2.765625q-1.015625 1.4375 -1.015625 3.140625q0 2.15625 1.28125 3.578125q1.296875 1.421875 2.96875 1.421875q2.28125 0 5.984375 -3.0zm1.53125 -34.125q1.34375 0 2.28125 0.953125q0.953125 0.953125 0.953125 2.3125q0 1.34375 -0.953125 2.296875q-0.9375 0.9375 -2.28125 0.9375q-1.34375 0 -2.3125 -0.9375q-0.953125 -0.953125 -0.953125 -2.296875q0 -1.359375 0.953125 -2.3125q0.96875 -0.953125 2.3125 -0.953125zm-10.578125 0q1.375 0 2.3125 0.953125q0.953125 0.953125 0.953125 2.3125q0 1.34375 -0.96875 2.296875q-0.953125 0.9375 -2.265625 0.9375q-1.34375 0 -2.3125 -0.9375q-0.953125 -0.953125 -0.953125 -2.296875q0 -1.359375 0.9375 -2.3125q0.953125 -0.953125 2.296875 -0.953125zm28.251587 17.328125q3.984375 -5.53125 8.59375 -5.53125q4.21875 0 7.359375 3.609375q3.140625 3.609375 3.140625 9.859375q0 7.3125 -4.84375 11.765625q-4.15625 3.84375 -9.28125 3.84375q-2.390625 0 -4.875 -0.859375q-2.46875 -0.875 -5.046875 -2.625l0 -28.40625q0 -4.671875 -0.21875 -5.75q-0.21875 -1.078125 -0.703125 -1.46875q-0.484375 -0.390625 -1.203125 -0.390625q-0.828125 0 -2.09375 0.46875l-0.421875 -1.046875l8.234375 -3.34375l1.359375 0l0 19.875zm0 1.921875l0 16.40625q1.515625 1.5 3.140625 2.265625q1.640625 0.765625 3.359375 0.765625q2.71875 0 5.0625 -3.0q2.359375 -3.0 2.359375 -8.71875q0 -5.265625 -2.359375 -8.09375q-2.34375 -2.828125 -5.34375 -2.828125q-1.578125 0 -3.171875 0.8125q-1.1875 0.59375 -3.046875 2.390625zm23.710938 4.765625l15.484375 0l0 4.515625l-15.484375 0l0 -4.515625zm26.79776 -26.59375q1.296875 0 2.1875 0.90625q0.90625 0.890625 0.90625 2.171875q0 1.265625 -0.90625 2.171875q-0.890625 0.890625 -2.1875 0.890625q-1.25 0 -2.15625 -0.890625q-0.890625 -0.90625 -0.890625 -2.171875q0 -1.28125 0.890625 -2.171875q0.90625 -0.90625 2.15625 -0.90625zm2.578125 14.375l0 27.609375q0 7.03125 -3.0 10.4375q-2.984375 3.421875 -7.78125 3.421875q-2.71875 0 -4.03125 -0.984375q-1.328125 -0.984375 -1.328125 -2.03125q0 -1.0625 0.734375 -1.8125q0.734375 -0.734375 1.71875 -0.734375q0.78125 0 1.59375 0.390625q0.5 0.203125 1.953125 1.5q1.453125 1.3125 2.453125 1.3125q0.71875 0 1.40625 -0.5625q0.6875 -0.546875 1.015625 -1.859375q0.328125 -1.296875 0.328125 -5.640625l0 -19.515625q0 -4.53125 -0.265625 -5.8125q-0.21875 -0.984375 -0.671875 -1.359375q-0.4375 -0.375 -1.21875 -0.375q-0.84375 0 -2.03125 0.4375l-0.421875 -1.078125l8.265625 -3.34375l1.28125 0zm12.13266 11.140625q-0.03125 6.109375 2.96875 9.578125q2.984375 3.46875 7.03125 3.46875q2.6875 0 4.671875 -1.46875q2.0 -1.484375 3.359375 -5.078125l0.921875 0.59375q-0.625 4.09375 -3.65625 7.46875q-3.015625 3.375 -7.578125 3.375q-4.9375 0 -8.453125 -3.84375q-3.515625 -3.859375 -3.515625 -10.359375q0 -7.03125 3.609375 -10.96875q3.609375 -3.9375 9.046875 -3.9375q4.609375 0 7.578125 3.046875q2.96875 3.03125 2.96875 8.125l-18.953125 0zm0 -1.734375l12.6875 0q-0.140625 -2.640625 -0.625 -3.71875q-0.75 -1.671875 -2.234375 -2.625q-1.46875 -0.96875 -3.09375 -0.96875q-2.484375 0 -4.453125 1.9375q-1.953125 1.921875 -2.28125 5.375zm30.720367 -23.75l0 27.28125l6.984375 -6.359375q2.203125 -2.03125 2.5625 -2.5625q0.25 -0.359375 0.25 -0.71875q0 -0.609375 -0.5 -1.03125q-0.5 -0.4375 -1.625 -0.5l0 -0.96875l11.90625 0l0 0.96875q-2.453125 0.0625 -4.09375 0.75q-1.625 0.6875 -3.5625 2.453125l-7.046875 6.5l7.046875 8.890625q2.9375 3.6875 3.953125 4.671875q1.4375 1.40625 2.515625 1.828125q0.75 0.296875 2.59375 0.296875l0 1.078125l-13.3125 0l0 -1.078125q1.125 -0.03125 1.53125 -0.34375q0.40625 -0.3125 0.40625 -0.890625q0 -0.6875 -1.1875 -2.203125l-8.421875 -10.75l0 9.09375q0 2.671875 0.375 3.515625q0.375 0.828125 1.0625 1.1875q0.6875 0.359375 3.0 0.390625l0 1.078125l-13.953125 0l0 -1.078125q2.09375 0 3.140625 -0.515625q0.625 -0.328125 0.953125 -1.015625q0.453125 -0.984375 0.453125 -3.40625l0 -24.984375q0 -4.75 -0.21875 -5.8125q-0.203125 -1.0625 -0.6875 -1.46875q-0.46875 -0.40625 -1.25 -0.40625q-0.625 0 -1.890625 0.5l-0.5 -1.046875l8.140625 -3.34375l1.375 0zm30.507812 6.140625l0 9.0l6.421875 0l0 2.109375l-6.421875 0l0 17.78125q0 2.671875 0.765625 3.59375q0.765625 0.921875 1.96875 0.921875q0.984375 0 1.90625 -0.609375q0.9375 -0.609375 1.4375 -1.8125l1.171875 0q-1.046875 2.9375 -2.96875 4.421875q-1.90625 1.484375 -3.9375 1.484375q-1.390625 0 -2.703125 -0.765625q-1.3125 -0.765625 -1.953125 -2.1875q-0.625 -1.421875 -0.625 -4.390625l0 -18.4375l-4.34375 0l0 -1.0q1.65625 -0.65625 3.375 -2.21875q1.71875 -1.578125 3.0625 -3.734375q0.6875 -1.140625 1.921875 -4.15625l0.921875 0zm39.68344 -6.140625l-14.703125 43.421875l-2.390625 0l14.703125 -43.421875l2.390625 0zm8.50769 14.3125q1.375 0 2.34375 0.96875q0.984375 0.96875 0.984375 2.359375q0 1.375 -0.984375 2.34375q-0.96875 0.96875 -2.34375 0.96875q-1.375 0 -2.359375 -0.96875q-0.96875 -0.96875 -0.96875 -2.34375q0 -1.390625 0.96875 -2.359375q0.984375 -0.96875 2.359375 -0.96875zm-0.0625 22.421875q1.40625 0 2.375 1.0q0.984375 0.984375 0.984375 2.359375q0 1.375 -1.0 2.359375q-0.984375 0.96875 -2.359375 0.96875q-1.375 0 -2.359375 -0.96875q-0.96875 -0.984375 -0.96875 -2.359375q0 -1.375 0.96875 -2.359375q0.984375 -1.0 2.359375 -1.0z" fill-rule="nonzero"/><path fill="#000000" d="m485.72638 40.786247l-3.984375 13.625q5.609375 -8.359375 8.578125 -10.984375q2.984375 -2.640625 5.734375 -2.640625q1.5 0 2.46875 0.984375q0.984375 0.984375 0.984375 2.578125q0 1.796875 -0.875 4.78125l-3.65625 12.609375q-0.625 2.1875 -0.625 2.671875q0 0.421875 0.234375 0.703125q0.25 0.28125 0.515625 0.28125q0.359375 0 0.875 -0.390625q1.578125 -1.25 3.46875 -3.828125l0.921875 0.5625q-2.78125 3.984375 -5.265625 5.6875q-1.734375 1.171875 -3.109375 1.171875q-1.109375 0 -1.765625 -0.671875q-0.65625 -0.671875 -0.65625 -1.8125q0 -1.4375 1.015625 -4.9375l3.46875 -12.046875q0.65625 -2.234375 0.65625 -3.5q0 -0.59375 -0.390625 -0.96875q-0.390625 -0.375 -0.953125 -0.375q-0.84375 0 -2.0 0.71875q-2.21875 1.34375 -4.625 4.453125q-2.390625 3.09375 -5.046875 7.90625q-1.421875 2.546875 -2.34375 5.578125l-1.5 4.9375l-4.484375 0l5.453125 -18.75q0.953125 -3.375 0.953125 -4.0625q0 -0.671875 -0.53125 -1.15625q-0.515625 -0.5 -1.296875 -0.5q-0.359375 0 -1.265625 0.125l-1.125 0.171875l-0.1875 -1.078125l10.359375 -1.84375zm22.226562 21.734375q1.28125 0 2.15625 0.890625q0.890625 0.875 0.890625 2.140625q0 1.25 -0.90625 2.140625q-0.890625 0.875 -2.140625 0.875q-1.265625 0 -2.15625 -0.875q-0.875 -0.890625 -0.875 -2.140625q0 -1.265625 0.875 -2.140625q0.890625 -0.890625 2.15625 -0.890625z" fill-rule="nonzero"/><path fill="#000000" d="m521.4881 78.09875l0 -1.328125q3.078125 -1.015625 4.765625 -3.15625q1.703125 -2.140625 1.703125 -4.53125q0 -0.578125 -0.265625 -0.96875q-0.21875 -0.265625 -0.421875 -0.265625q-0.328125 0 -1.4375 0.59375q-0.546875 0.28125 -1.140625 0.28125q-1.46875 0 -2.34375 -0.859375q-0.859375 -0.875 -0.859375 -2.40625q0 -1.46875 1.125 -2.515625q1.125 -1.046875 2.734375 -1.046875q1.984375 0 3.515625 1.71875q1.546875 1.71875 1.546875 4.5625q0 3.09375 -2.140625 5.734375q-2.140625 2.65625 -6.78125 4.1875zm44.820312 -14.171875q-4.21875 3.265625 -5.296875 3.78125q-1.609375 0.734375 -3.4375 0.734375q-2.84375 0 -4.6875 -1.9375q-1.84375 -1.953125 -1.84375 -5.125q0 -2.0 0.890625 -3.46875q1.234375 -2.046875 4.265625 -3.828125q3.046875 -1.796875 10.109375 -4.375l0 -1.078125q0 -4.109375 -1.296875 -5.625q-1.296875 -1.53125 -3.78125 -1.53125q-1.890625 0 -3.0 1.015625q-1.140625 1.015625 -1.140625 2.328125l0.0625 1.734375q0 1.390625 -0.703125 2.140625q-0.703125 0.734375 -1.84375 0.734375q-1.109375 0 -1.8125 -0.765625q-0.703125 -0.78125 -0.703125 -2.125q0 -2.578125 2.625 -4.734375q2.640625 -2.15625 7.40625 -2.15625q3.65625 0 5.984375 1.21875q1.765625 0.9375 2.609375 2.90625q0.546875 1.296875 0.546875 5.28125l0 9.3125q0 3.921875 0.140625 4.8125q0.15625 0.875 0.5 1.171875q0.34375 0.296875 0.796875 0.296875q0.46875 0 0.828125 -0.203125q0.625 -0.390625 2.421875 -2.1875l0 1.671875q-3.34375 4.484375 -6.40625 4.484375q-1.46875 0 -2.34375 -1.015625q-0.859375 -1.015625 -0.890625 -3.46875zm0 -1.953125l0 -10.4375q-4.515625 1.796875 -5.828125 2.53125q-2.375 1.328125 -3.390625 2.765625q-1.015625 1.4375 -1.015625 3.140625q0 2.15625 1.28125 3.578125q1.296875 1.421875 2.96875 1.421875q2.28125 0 5.984375 -3.0zm34.974243 -30.53125l0 9.0l6.421875 0l0 2.109375l-6.421875 0l0 17.78125q0 2.671875 0.765625 3.59375q0.765625 0.921875 1.96875 0.921875q0.984375 0 1.90625 -0.609375q0.9375 -0.609375 1.4375 -1.8125l1.171875 0q-1.046875 2.9375 -2.96875 4.421875q-1.90625 1.484375 -3.9375 1.484375q-1.390625 0 -2.703125 -0.765625q-1.3125 -0.765625 -1.953125 -2.1875q-0.625 -1.421875 -0.625 -4.390625l0 -18.4375l-4.34375 0l0 -1.0q1.65625 -0.65625 3.375 -2.21875q1.71875 -1.578125 3.0625 -3.734375q0.6875 -1.140625 1.921875 -4.15625l0.921875 0zm17.13269 -6.140625l0 20.0625q3.328125 -3.65625 5.265625 -4.6875q1.953125 -1.03125 3.90625 -1.03125q2.328125 0 4.0 1.296875q1.6875 1.28125 2.5 4.03125q0.5625 1.921875 0.5625 7.0l0 9.703125q0 2.609375 0.421875 3.5625q0.296875 0.71875 1.015625 1.140625q0.71875 0.421875 2.640625 0.421875l0 1.078125l-13.484375 0l0 -1.078125l0.625 0q1.921875 0 2.671875 -0.578125q0.75 -0.59375 1.046875 -1.734375q0.09375 -0.46875 0.09375 -2.8125l0 -9.703125q0 -4.484375 -0.46875 -5.890625q-0.46875 -1.40625 -1.484375 -2.109375q-1.015625 -0.703125 -2.453125 -0.703125q-1.46875 0 -3.0625 0.78125q-1.578125 0.765625 -3.796875 3.140625l0 14.484375q0 2.8125 0.3125 3.515625q0.3125 0.6875 1.171875 1.15625q0.859375 0.453125 2.953125 0.453125l0 1.078125l-13.59375 0l0 -1.078125q1.828125 0 2.875 -0.5625q0.59375 -0.3125 0.953125 -1.140625q0.359375 -0.84375 0.359375 -3.421875l0 -24.8125q0 -4.703125 -0.234375 -5.78125q-0.21875 -1.078125 -0.6875 -1.46875q-0.453125 -0.390625 -1.234375 -0.390625q-0.625 0 -2.03125 0.46875l-0.421875 -1.046875l8.203125 -3.34375l1.375 0zm29.585938 0q1.265625 0 2.140625 0.890625q0.890625 0.875 0.890625 2.125q0 1.265625 -0.890625 2.171875q-0.875 0.890625 -2.140625 0.890625q-1.25 0 -2.15625 -0.890625q-0.890625 -0.90625 -0.890625 -2.171875q0 -1.25 0.875 -2.125q0.890625 -0.890625 2.171875 -0.890625zm2.484375 14.34375l0 22.03125q0 2.578125 0.375 3.4375q0.375 0.84375 1.109375 1.265625q0.734375 0.421875 2.6875 0.421875l0 1.078125l-13.328125 0l0 -1.078125q2.0 0 2.6875 -0.390625q0.6875 -0.390625 1.09375 -1.28125q0.40625 -0.90625 0.40625 -3.453125l0 -10.5625q0 -4.46875 -0.265625 -5.78125q-0.21875 -0.953125 -0.671875 -1.328125q-0.4375 -0.375 -1.21875 -0.375q-0.84375 0 -2.03125 0.4375l-0.421875 -1.078125l8.265625 -3.34375l1.3125 0zm15.57019 5.8125q4.828125 -5.8125 9.203125 -5.8125q2.234375 0 3.84375 1.125q1.625 1.109375 2.59375 3.6875q0.65625 1.796875 0.65625 5.515625l0 11.703125q0 2.609375 0.421875 3.53125q0.328125 0.75 1.0625 1.171875q0.734375 0.421875 2.703125 0.421875l0 1.078125l-13.5625 0l0 -1.078125l0.5625 0q1.921875 0 2.6875 -0.578125q0.765625 -0.59375 1.0625 -1.734375q0.125 -0.4375 0.125 -2.8125l0 -11.21875q0 -3.75 -0.984375 -5.4375q-0.96875 -1.703125 -3.265625 -1.703125q-3.5625 0 -7.109375 3.90625l0 14.453125q0 2.796875 0.328125 3.453125q0.421875 0.859375 1.15625 1.265625q0.734375 0.40625 2.984375 0.40625l0 1.078125l-13.5625 0l0 -1.078125l0.59375 0q2.09375 0 2.828125 -1.0625q0.734375 -1.0625 0.734375 -4.0625l0 -10.171875q0 -4.953125 -0.234375 -6.03125q-0.21875 -1.078125 -0.6875 -1.453125q-0.453125 -0.390625 -1.234375 -0.390625q-0.84375 0 -2.0 0.4375l-0.453125 -1.078125l8.265625 -3.34375l1.28125 0l0 5.8125zm30.007812 12.421875q-2.515625 -1.234375 -3.859375 -3.421875q-1.34375 -2.203125 -1.34375 -4.875q0 -4.078125 3.0625 -7.0q3.078125 -2.9375 7.859375 -2.9375q3.921875 0 6.796875 1.90625l5.8125 0q1.296875 0 1.5 0.078125q0.203125 0.078125 0.296875 0.25q0.1875 0.28125 0.1875 0.96875q0 0.78125 -0.15625 1.078125q-0.09375 0.140625 -0.3125 0.234375q-0.21875 0.09375 -1.515625 0.09375l-3.5625 0q1.671875 2.15625 1.671875 5.515625q0 3.828125 -2.9375 6.5625q-2.921875 2.71875 -7.859375 2.71875q-2.046875 0 -4.171875 -0.609375q-1.3125 1.140625 -1.78125 2.0q-0.46875 0.84375 -0.46875 1.453125q0 0.5 0.5 0.984375q0.5 0.484375 1.9375 0.6875q0.828125 0.125 4.1875 0.203125q6.171875 0.15625 8.0 0.421875q2.78125 0.390625 4.4375 2.078125q1.671875 1.671875 1.671875 4.125q0 3.390625 -3.1875 6.34375q-4.671875 4.375 -12.1875 4.375q-5.765625 0 -9.75 -2.609375q-2.25 -1.484375 -2.25 -3.109375q0 -0.71875 0.328125 -1.4375q0.515625 -1.109375 2.09375 -3.078125q0.21875 -0.28125 3.0625 -3.234375q-1.5625 -0.9375 -2.203125 -1.671875q-0.640625 -0.734375 -0.640625 -1.65625q0 -1.046875 0.84375 -2.453125q0.859375 -1.40625 3.9375 -3.984375zm5.21875 -16.796875q-2.21875 0 -3.71875 1.765625q-1.5 1.765625 -1.5 5.421875q0 4.71875 2.046875 7.328125q1.546875 1.984375 3.953125 1.984375q2.265625 0 3.734375 -1.703125q1.46875 -1.71875 1.46875 -5.375q0 -4.75 -2.0625 -7.453125q-1.53125 -1.96875 -3.921875 -1.96875zm-5.515625 26.796875q-1.40625 1.53125 -2.125 2.84375q-0.71875 1.3125 -0.71875 2.421875q0 1.4375 1.734375 2.515625q3.0 1.859375 8.65625 1.859375q5.390625 0 7.953125 -1.90625q2.5625 -1.890625 2.5625 -4.046875q0 -1.5625 -1.53125 -2.21875q-1.5625 -0.65625 -6.171875 -0.78125q-6.734375 -0.171875 -10.359375 -0.6875zm46.91797 -36.4375l0 9.0l6.421875 0l0 2.109375l-6.421875 0l0 17.78125q0 2.671875 0.765625 3.59375q0.765625 0.921875 1.96875 0.921875q0.984375 0 1.90625 -0.609375q0.9375 -0.609375 1.4375 -1.8125l1.171875 0q-1.046875 2.9375 -2.96875 4.421875q-1.90625 1.484375 -3.9375 1.484375q-1.390625 0 -2.703125 -0.765625q-1.3125 -0.765625 -1.953125 -2.1875q-0.625 -1.421875 -0.625 -4.390625l0 -18.4375l-4.34375 0l0 -1.0q1.65625 -0.65625 3.375 -2.21875q1.71875 -1.578125 3.0625 -3.734375q0.6875 -1.140625 1.921875 -4.15625l0.921875 0zm17.13263 -6.140625l0 20.0625q3.328125 -3.65625 5.265625 -4.6875q1.953125 -1.03125 3.90625 -1.03125q2.328125 0 4.0 1.296875q1.6875 1.28125 2.5 4.03125q0.5625 1.921875 0.5625 7.0l0 9.703125q0 2.609375 0.421875 3.5625q0.296875 0.71875 1.015625 1.140625q0.71875 0.421875 2.640625 0.421875l0 1.078125l-13.484375 0l0 -1.078125l0.625 0q1.921875 0 2.671875 -0.578125q0.75 -0.59375 1.046875 -1.734375q0.09375 -0.46875 0.09375 -2.8125l0 -9.703125q0 -4.484375 -0.46875 -5.890625q-0.46875 -1.40625 -1.484375 -2.109375q-1.015625 -0.703125 -2.453125 -0.703125q-1.46875 0 -3.0625 0.78125q-1.578125 0.765625 -3.796875 3.140625l0 14.484375q0 2.8125 0.3125 3.515625q0.3125 0.6875 1.171875 1.15625q0.859375 0.453125 2.953125 0.453125l0 1.078125l-13.59375 0l0 -1.078125q1.828125 0 2.875 -0.5625q0.59375 -0.3125 0.953125 -1.140625q0.359375 -0.84375 0.359375 -3.421875l0 -24.8125q0 -4.703125 -0.234375 -5.78125q-0.21875 -1.078125 -0.6875 -1.46875q-0.453125 -0.390625 -1.234375 -0.390625q-0.625 0 -2.03125 0.46875l-0.421875 -1.046875l8.203125 -3.34375l1.375 0zm38.148438 38.625q-4.21875 3.265625 -5.296875 3.78125q-1.609375 0.734375 -3.4375 0.734375q-2.84375 0 -4.6875 -1.9375q-1.84375 -1.953125 -1.84375 -5.125q0 -2.0 0.890625 -3.46875q1.234375 -2.046875 4.265625 -3.828125q3.046875 -1.796875 10.109375 -4.375l0 -1.078125q0 -4.109375 -1.296875 -5.625q-1.296875 -1.53125 -3.78125 -1.53125q-1.890625 0 -3.0 1.015625q-1.140625 1.015625 -1.140625 2.328125l0.0625 1.734375q0 1.390625 -0.703125 2.140625q-0.703125 0.734375 -1.84375 0.734375q-1.109375 0 -1.8125 -0.765625q-0.703125 -0.78125 -0.703125 -2.125q0 -2.578125 2.625 -4.734375q2.640625 -2.15625 7.40625 -2.15625q3.65625 0 5.984375 1.21875q1.765625 0.9375 2.609375 2.90625q0.546875 1.296875 0.546875 5.28125l0 9.3125q0 3.921875 0.140625 4.8125q0.15625 0.875 0.5 1.171875q0.34375 0.296875 0.796875 0.296875q0.46875 0 0.828125 -0.203125q0.625 -0.390625 2.421875 -2.1875l0 1.671875q-3.34375 4.484375 -6.40625 4.484375q-1.46875 0 -2.34375 -1.015625q-0.859375 -1.015625 -0.890625 -3.46875zm0 -1.953125l0 -10.4375q-4.515625 1.796875 -5.828125 2.53125q-2.375 1.328125 -3.390625 2.765625q-1.015625 1.4375 -1.015625 3.140625q0 2.15625 1.28125 3.578125q1.296875 1.421875 2.96875 1.421875q2.28125 0 5.984375 -3.0zm19.642273 -30.53125l0 9.0l6.421875 0l0 2.109375l-6.421875 0l0 17.78125q0 2.671875 0.765625 3.59375q0.765625 0.921875 1.96875 0.921875q0.984375 0 1.90625 -0.609375q0.9375 -0.609375 1.4375 -1.8125l1.171875 0q-1.046875 2.9375 -2.96875 4.421875q-1.90625 1.484375 -3.9375 1.484375q-1.390625 0 -2.703125 -0.765625q-1.3125 -0.765625 -1.953125 -2.1875q-0.625 -1.421875 -0.625 -4.390625l0 -18.4375l-4.34375 0l0 -1.0q1.65625 -0.65625 3.375 -2.21875q1.71875 -1.578125 3.0625 -3.734375q0.6875 -1.140625 1.921875 -4.15625l0.921875 0zm31.745972 26.4375q-2.515625 -1.234375 -3.859375 -3.421875q-1.34375 -2.203125 -1.34375 -4.875q0 -4.078125 3.0625 -7.0q3.078125 -2.9375 7.859375 -2.9375q3.921875 0 6.796875 1.90625l5.8125 0q1.296875 0 1.5 0.078125q0.203125 0.078125 0.296875 0.25q0.1875 0.28125 0.1875 0.96875q0 0.78125 -0.15625 1.078125q-0.09375 0.140625 -0.3125 0.234375q-0.21875 0.09375 -1.515625 0.09375l-3.5625 0q1.671875 2.15625 1.671875 5.515625q0 3.828125 -2.9375 6.5625q-2.921875 2.71875 -7.859375 2.71875q-2.046875 0 -4.171875 -0.609375q-1.3125 1.140625 -1.78125 2.0q-0.46875 0.84375 -0.46875 1.453125q0 0.5 0.5 0.984375q0.5 0.484375 1.9375 0.6875q0.828125 0.125 4.1875 0.203125q6.171875 0.15625 8.0 0.421875q2.78125 0.390625 4.4375 2.078125q1.671875 1.671875 1.671875 4.125q0 3.390625 -3.1875 6.34375q-4.671875 4.375 -12.1875 4.375q-5.765625 0 -9.75 -2.609375q-2.25 -1.484375 -2.25 -3.109375q0 -0.71875 0.328125 -1.4375q0.515625 -1.109375 2.09375 -3.078125q0.21875 -0.28125 3.0625 -3.234375q-1.5625 -0.9375 -2.203125 -1.671875q-0.640625 -0.734375 -0.640625 -1.65625q0 -1.046875 0.84375 -2.453125q0.859375 -1.40625 3.9375 -3.984375zm5.21875 -16.796875q-2.21875 0 -3.71875 1.765625q-1.5 1.765625 -1.5 5.421875q0 4.71875 2.046875 7.328125q1.546875 1.984375 3.953125 1.984375q2.265625 0 3.734375 -1.703125q1.46875 -1.71875 1.46875 -5.375q0 -4.75 -2.0625 -7.453125q-1.53125 -1.96875 -3.921875 -1.96875zm-5.515625 26.796875q-1.40625 1.53125 -2.125 2.84375q-0.71875 1.3125 -0.71875 2.421875q0 1.4375 1.734375 2.515625q3.0 1.859375 8.65625 1.859375q5.390625 0 7.953125 -1.90625q2.5625 -1.890625 2.5625 -4.046875q0 -1.5625 -1.53125 -2.21875q-1.5625 -0.65625 -6.171875 -0.78125q-6.734375 -0.171875 -10.359375 -0.6875zm31.648438 -28.234375l0 6.171875q3.453125 -6.171875 7.078125 -6.171875q1.640625 0 2.71875 1.0q1.078125 1.0 1.078125 2.3125q0 1.171875 -0.78125 1.984375q-0.78125 0.8125 -1.859375 0.8125q-1.046875 0 -2.34375 -1.03125q-1.296875 -1.046875 -1.9375 -1.046875q-0.53125 0 -1.15625 0.609375q-1.359375 1.21875 -2.796875 4.046875l0 13.140625q0 2.28125 0.578125 3.4375q0.390625 0.8125 1.375 1.359375q0.984375 0.53125 2.84375 0.53125l0 1.078125l-14.046875 0l0 -1.078125q2.09375 0 3.109375 -0.65625q0.75 -0.484375 1.046875 -1.53125q0.15625 -0.5 0.15625 -2.90625l0 -10.625q0 -4.796875 -0.203125 -5.703125q-0.1875 -0.921875 -0.71875 -1.328125q-0.515625 -0.421875 -1.296875 -0.421875q-0.921875 0 -2.09375 0.4375l-0.296875 -1.078125l8.296875 -3.34375l1.25 0zm25.813354 0q6.234375 0 10.0 4.734375q3.203125 4.03125 3.203125 9.28125q0 3.671875 -1.765625 7.453125q-1.765625 3.765625 -4.859375 5.6875q-3.09375 1.921875 -6.90625 1.921875q-6.203125 0 -9.84375 -4.953125q-3.09375 -4.15625 -3.09375 -9.34375q0 -3.765625 1.875 -7.484375q1.875 -3.734375 4.921875 -5.515625q3.0625 -1.78125 6.46875 -1.78125zm-0.921875 1.9375q-1.59375 0 -3.203125 0.953125q-1.59375 0.9375 -2.578125 3.3125q-0.984375 2.359375 -0.984375 6.078125q0 5.984375 2.375 10.328125q2.375 4.34375 6.28125 4.34375q2.890625 0 4.78125 -2.390625q1.890625 -2.40625 1.890625 -8.25q0 -7.296875 -3.140625 -11.5q-2.125 -2.875 -5.421875 -2.875zm42.226562 -1.140625l0 16.625q0 4.765625 0.21875 5.828125q0.21875 1.0625 0.71875 1.484375q0.5 0.421875 1.15625 0.421875q0.921875 0 2.09375 -0.515625l0.421875 1.046875l-8.203125 3.390625l-1.359375 0l0 -5.8125q-3.53125 3.828125 -5.390625 4.828125q-1.84375 0.984375 -3.921875 0.984375q-2.296875 0 -4.0 -1.328125q-1.6875 -1.34375 -2.34375 -3.4375q-0.65625 -2.09375 -0.65625 -5.9375l0 -12.234375q0 -1.953125 -0.421875 -2.703125q-0.421875 -0.75 -1.25 -1.15625q-0.8125 -0.40625 -2.96875 -0.375l0 -1.109375l9.609375 0l0 18.359375q0 3.84375 1.328125 5.046875q1.34375 1.1875 3.21875 1.1875q1.296875 0 2.921875 -0.8125q1.640625 -0.8125 3.875 -3.078125l0 -15.546875q0 -2.328125 -0.859375 -3.15625q-0.84375 -0.828125 -3.53125 -0.890625l0 -1.109375l9.34375 0zm4.6328125 2.734375l8.453125 -3.421875l1.125 0l0 6.421875q2.140625 -3.625 4.28125 -5.078125q2.140625 -1.453125 4.5 -1.453125q4.125 0 6.890625 3.234375q3.375 3.953125 3.375 10.296875q0 7.09375 -4.0625 11.734375q-3.359375 3.8125 -8.453125 3.8125q-2.21875 0 -3.828125 -0.640625q-1.203125 -0.4375 -2.703125 -1.796875l0 8.359375q0 2.8125 0.34375 3.578125q0.359375 0.765625 1.203125 1.21875q0.859375 0.453125 3.109375 0.453125l0 1.09375l-14.375 0l0 -1.09375l0.734375 0q1.65625 0.015625 2.828125 -0.640625q0.5625 -0.328125 0.875 -1.0625q0.3125 -0.734375 0.3125 -3.71875l0 -25.9375q0 -2.671875 -0.234375 -3.390625q-0.234375 -0.71875 -0.765625 -1.078125q-0.515625 -0.359375 -1.421875 -0.359375q-0.71875 0 -1.828125 0.421875l-0.359375 -0.953125zm9.578125 4.765625l0 10.234375q0 3.328125 0.28125 4.375q0.421875 1.734375 2.046875 3.0625q1.625 1.3125 4.109375 1.3125q3.0 0 4.859375 -2.34375q2.421875 -3.046875 2.421875 -8.59375q0 -6.28125 -2.75 -9.671875q-1.921875 -2.328125 -4.546875 -2.328125q-1.4375 0 -2.84375 0.71875q-1.078125 0.53125 -3.578125 3.234375zm40.789062 -8.296875l0 9.34375l-0.984375 0q-1.140625 -4.40625 -2.921875 -5.984375q-1.78125 -1.59375 -4.53125 -1.59375q-2.09375 0 -3.390625 1.109375q-1.28125 1.109375 -1.28125 2.453125q0 1.671875 0.953125 2.875q0.9375 1.21875 3.78125 2.609375l4.359375 2.125q6.078125 2.953125 6.078125 7.8125q0 3.734375 -2.828125 6.03125q-2.828125 2.296875 -6.328125 2.296875q-2.515625 0 -5.75 -0.90625q-0.984375 -0.296875 -1.609375 -0.296875q-0.703125 0 -1.078125 0.78125l-1.0 0l0 -9.796875l1.0 0q0.828125 4.1875 3.1875 6.328125q2.375 2.125 5.3125 2.125q2.0625 0 3.359375 -1.21875q1.3125 -1.21875 1.3125 -2.921875q0 -2.0625 -1.453125 -3.46875q-1.453125 -1.40625 -5.796875 -3.5625q-4.34375 -2.15625 -5.6875 -3.890625q-1.34375 -1.71875 -1.34375 -4.3125q0 -3.390625 2.3125 -5.65625q2.328125 -2.28125 6.0 -2.28125q1.625 0 3.9375 0.6875q1.515625 0.453125 2.03125 0.453125q0.46875 0 0.734375 -0.203125q0.28125 -0.21875 0.640625 -0.9375l0.984375 0zm29.432922 -8.203125l0 9.0l6.421875 0l0 2.109375l-6.421875 0l0 17.78125q0 2.671875 0.765625 3.59375q0.765625 0.921875 1.96875 0.921875q0.984375 0 1.90625 -0.609375q0.9375 -0.609375 1.4375 -1.8125l1.171875 0q-1.046875 2.9375 -2.96875 4.421875q-1.90625 1.484375 -3.9375 1.484375q-1.390625 0 -2.703125 -0.765625q-1.3125 -0.765625 -1.953125 -2.1875q-0.625 -1.421875 -0.625 -4.390625l0 -18.4375l-4.343811 0l0 -1.0q1.656311 -0.65625 3.375061 -2.21875q1.71875 -1.578125 3.0625 -3.734375q0.6875 -1.140625 1.921875 -4.15625l0.921875 0zm22.491943 8.203125q6.234375 0 10.0 4.734375q3.203125 4.03125 3.203125 9.28125q0 3.671875 -1.765625 7.453125q-1.765625 3.765625 -4.859375 5.6875q-3.09375 1.921875 -6.90625 1.921875q-6.203125 0 -9.84375 -4.953125q-3.09375 -4.15625 -3.09375 -9.34375q0 -3.765625 1.875 -7.484375q1.875 -3.734375 4.921875 -5.515625q3.0625 -1.78125 6.46875 -1.78125zm-0.921875 1.9375q-1.59375 0 -3.203125 0.953125q-1.59375 0.9375 -2.578125 3.3125q-0.984375 2.359375 -0.984375 6.078125q0 5.984375 2.375 10.328125q2.375 4.34375 6.28125 4.34375q2.890625 0 4.78125 -2.390625q1.890625 -2.40625 1.890625 -8.25q0 -7.296875 -3.140625 -11.5q-2.125 -2.875 -5.421875 -2.875zm25.507812 16.296875q-2.515625 -1.234375 -3.859375 -3.421875q-1.34375 -2.203125 -1.34375 -4.875q0 -4.078125 3.0625 -7.0q3.078125 -2.9375 7.859375 -2.9375q3.921875 0 6.796875 1.90625l5.8125 0q1.296875 0 1.5 0.078125q0.203125 0.078125 0.296875 0.25q0.1875 0.28125 0.1875 0.96875q0 0.78125 -0.15625 1.078125q-0.09375 0.140625 -0.3125 0.234375q-0.21875 0.09375 -1.515625 0.09375l-3.5625 0q1.671875 2.15625 1.671875 5.515625q0 3.828125 -2.9375 6.5625q-2.921875 2.71875 -7.859375 2.71875q-2.046875 0 -4.171875 -0.609375q-1.3125 1.140625 -1.78125 2.0q-0.46875 0.84375 -0.46875 1.453125q0 0.5 0.5 0.984375q0.5 0.484375 1.9375 0.6875q0.828125 0.125 4.1875 0.203125q6.171875 0.15625 8.0 0.421875q2.78125 0.390625 4.4375 2.078125q1.671875 1.671875 1.671875 4.125q0 3.390625 -3.1875 6.34375q-4.671875 4.375 -12.1875 4.375q-5.765625 0 -9.75 -2.609375q-2.25 -1.484375 -2.25 -3.109375q0 -0.71875 0.328125 -1.4375q0.515625 -1.109375 2.09375 -3.078125q0.21875 -0.28125 3.0625 -3.234375q-1.5625 -0.9375 -2.203125 -1.671875q-0.640625 -0.734375 -0.640625 -1.65625q0 -1.046875 0.84375 -2.453125q0.859375 -1.40625 3.9375 -3.984375zm5.21875 -16.796875q-2.21875 0 -3.71875 1.765625q-1.5 1.765625 -1.5 5.421875q0 4.71875 2.046875 7.328125q1.546875 1.984375 3.953125 1.984375q2.265625 0 3.734375 -1.703125q1.46875 -1.71875 1.46875 -5.375q0 -4.75 -2.0625 -7.453125q-1.53125 -1.96875 -3.921875 -1.96875zm-5.515625 26.796875q-1.40625 1.53125 -2.125 2.84375q-0.71875 1.3125 -0.71875 2.421875q0 1.4375 1.734375 2.515625q3.0 1.859375 8.65625 1.859375q5.390625 0 7.953125 -1.90625q2.5625 -1.890625 2.5625 -4.046875q0 -1.5625 -1.53125 -2.21875q-1.5625 -0.65625 -6.171875 -0.78125q-6.734375 -0.171875 -10.359375 -0.6875zm28.242188 -17.09375q-0.03125 6.109375 2.96875 9.578125q2.984375 3.46875 7.03125 3.46875q2.6875 0 4.671875 -1.46875q2.0 -1.484375 3.359375 -5.078125l0.921875 0.59375q-0.625 4.09375 -3.65625 7.46875q-3.015625 3.375 -7.578125 3.375q-4.9375 0 -8.453125 -3.84375q-3.515625 -3.859375 -3.515625 -10.359375q0 -7.03125 3.609375 -10.96875q3.609375 -3.9375 9.046875 -3.9375q4.609375 0 7.578125 3.046875q2.96875 3.03125 2.96875 8.125l-18.953125 0zm0 -1.734375l12.6875 0q-0.140625 -2.640625 -0.625 -3.71875q-0.75 -1.671875 -2.234375 -2.625q-1.46875 -0.96875 -3.09375 -0.96875q-2.484375 0 -4.453125 1.9375q-1.953125 1.921875 -2.28125 5.375zm30.564209 -17.609375l0 9.0l6.421875 0l0 2.109375l-6.421875 0l0 17.78125q0 2.671875 0.765625 3.59375q0.765625 0.921875 1.96875 0.921875q0.984375 0 1.90625 -0.609375q0.9375 -0.609375 1.4375 -1.8125l1.171875 0q-1.046875 2.9375 -2.96875 4.421875q-1.90625 1.484375 -3.9375 1.484375q-1.390625 0 -2.703125 -0.765625q-1.3125 -0.765625 -1.953125 -2.1875q-0.625 -1.421875 -0.625 -4.390625l0 -18.4375l-4.34375 0l0 -1.0q1.65625 -0.65625 3.375 -2.21875q1.71875 -1.578125 3.0625 -3.734375q0.6875 -1.140625 1.921875 -4.15625l0.921875 0zm17.132568 -6.140625l0 20.0625q3.328125 -3.65625 5.265625 -4.6875q1.953125 -1.03125 3.90625 -1.03125q2.328125 0 4.0 1.296875q1.6875 1.28125 2.5 4.03125q0.5625 1.921875 0.5625 7.0l0 9.703125q0 2.609375 0.421875 3.5625q0.296875 0.71875 1.015625 1.140625q0.71875 0.421875 2.640625 0.421875l0 1.078125l-13.484375 0l0 -1.078125l0.625 0q1.921875 0 2.671875 -0.578125q0.75 -0.59375 1.046875 -1.734375q0.09375 -0.46875 0.09375 -2.8125l0 -9.703125q0 -4.484375 -0.46875 -5.890625q-0.46875 -1.40625 -1.484375 -2.109375q-1.015625 -0.703125 -2.453125 -0.703125q-1.46875 0 -3.0625 0.78125q-1.578125 0.765625 -3.796875 3.140625l0 14.484375q0 2.8125 0.3125 3.515625q0.3125 0.6875 1.171875 1.15625q0.859375 0.453125 2.953125 0.453125l0 1.078125l-13.59375 0l0 -1.078125q1.828125 0 2.875 -0.5625q0.59375 -0.3125 0.953125 -1.140625q0.359375 -0.84375 0.359375 -3.421875l0 -24.8125q0 -4.703125 -0.234375 -5.78125q-0.21875 -1.078125 -0.6875 -1.46875q-0.453125 -0.390625 -1.234375 -0.390625q-0.625 0 -2.03125 0.46875l-0.421875 -1.046875l8.203125 -3.34375l1.375 0zm27.226562 25.484375q-0.03125 6.109375 2.96875 9.578125q2.984375 3.46875 7.03125 3.46875q2.6875 0 4.671875 -1.46875q2.0 -1.484375 3.359375 -5.078125l0.921875 0.59375q-0.625 4.09375 -3.65625 7.46875q-3.015625 3.375 -7.578125 3.375q-4.9375 0 -8.453125 -3.84375q-3.515625 -3.859375 -3.515625 -10.359375q0 -7.03125 3.609375 -10.96875q3.609375 -3.9375 9.046875 -3.9375q4.609375 0 7.578125 3.046875q2.96875 3.03125 2.96875 8.125l-18.953125 0zm0 -1.734375l12.6875 0q-0.140625 -2.640625 -0.625 -3.71875q-0.75 -1.671875 -2.234375 -2.625q-1.46875 -0.96875 -3.09375 -0.96875q-2.484375 0 -4.453125 1.9375q-1.953125 1.921875 -2.28125 5.375zm30.626709 -9.40625l0 6.171875q3.453125 -6.171875 7.078125 -6.171875q1.640625 0 2.71875 1.0q1.078125 1.0 1.078125 2.3125q0 1.171875 -0.78125 1.984375q-0.78125 0.8125 -1.859375 0.8125q-1.046875 0 -2.34375 -1.03125q-1.296875 -1.046875 -1.9375 -1.046875q-0.53125 0 -1.15625 0.609375q-1.359375 1.21875 -2.796875 4.046875l0 13.140625q0 2.28125 0.578125 3.4375q0.390625 0.8125 1.375 1.359375q0.984375 0.53125 2.84375 0.53125l0 1.078125l-14.046875 0l0 -1.078125q2.09375 0 3.109375 -0.65625q0.75 -0.484375 1.046875 -1.53125q0.15625 -0.5 0.15625 -2.90625l0 -10.625q0 -4.796875 -0.203125 -5.703125q-0.1875 -0.921875 -0.71875 -1.328125q-0.515625 -0.421875 -1.296875 -0.421875q-0.921875 0 -2.09375 0.4375l-0.296875 -1.078125l8.296875 -3.34375l1.25 0z" fill-rule="nonzero"/><path fill="#000000" d="m1271.8188 25.301872l-10.296875 35.328125q-0.828125 2.875 -0.828125 3.78125q0 0.296875 0.25 0.5625q0.25 0.265625 0.515625 0.265625q0.390625 0 0.9375 -0.390625q1.015625 -0.71875 3.40625 -3.59375l1.015625 0.640625q-2.15625 2.984375 -4.359375 4.84375q-2.1875 1.859375 -4.109375 1.859375q-1.015625 0 -1.671875 -0.71875q-0.65625 -0.71875 -0.65625 -2.03125q0 -1.71875 0.890625 -4.59375l1.171875 -3.703125q-4.34375 6.703125 -7.90625 9.28125q-2.453125 1.765625 -4.703125 1.765625q-2.28125 0 -3.96875 -2.015625q-1.6875 -2.03125 -1.6875 -5.5q0 -4.46875 2.84375 -9.515625q2.84375 -5.0625 7.515625 -8.25q3.6875 -2.53125 6.765625 -2.53125q1.609375 0 2.78125 0.65625q1.171875 0.65625 2.3125 2.1875l2.9375 -10.421875q0.328125 -1.109375 0.53125 -1.765625q0.359375 -1.203125 0.359375 -1.984375q0 -0.625 -0.453125 -1.046875q-0.625 -0.515625 -1.609375 -0.515625q-0.6875 0 -2.28125 0.21875l0 -1.109375l10.296875 -1.703125zm-11.109375 21.25q0 -1.90625 -1.109375 -3.078125q-1.09375 -1.171875 -2.8125 -1.171875q-3.765625 0 -7.859375 6.234375q-4.078125 6.234375 -4.078125 11.921875q0 2.234375 0.984375 3.421875q0.984375 1.1875 2.359375 1.1875q3.125 0 7.8125 -6.734375q4.703125 -6.75 4.703125 -11.78125zm37.382812 -5.765625l-5.84375 20.296875l-0.65625 2.71875q-0.09375 0.390625 -0.09375 0.671875q0 0.46875 0.296875 0.828125q0.25 0.265625 0.609375 0.265625q0.390625 0 1.015625 -0.46875q1.171875 -0.875 3.109375 -3.59375l1.015625 0.71875q-2.0625 3.109375 -4.25 4.75q-2.1875 1.625 -4.046875 1.625q-1.28125 0 -1.921875 -0.640625q-0.640625 -0.640625 -0.640625 -1.875q0 -1.46875 0.65625 -3.859375l0.625 -2.25q-3.921875 5.125 -7.21875 7.15625q-2.359375 1.46875 -4.640625 1.46875q-2.1875 0 -3.78125 -1.8125q-1.578125 -1.8125 -1.578125 -4.984375q0 -4.765625 2.859375 -10.046875q2.859375 -5.28125 7.265625 -8.453125q3.4375 -2.515625 6.5 -2.515625q1.828125 0 3.03125 0.953125q1.21875 0.953125 1.84375 3.171875l1.078125 -3.40625l4.765625 -0.71875zm-10.671875 1.546875q-1.90625 0 -4.0625 1.796875q-3.0625 2.546875 -5.4375 7.546875q-2.375 5.0 -2.375 9.046875q0 2.03125 1.015625 3.21875q1.015625 1.1875 2.328125 1.1875q3.265625 0 7.09375 -4.828125q5.125 -6.40625 5.125 -13.140625q0 -2.546875 -0.984375 -3.6875q-0.984375 -1.140625 -2.703125 -1.140625zm28.492188 -8.984375l-2.34375 8.15625l4.703125 0l-0.515625 1.875l-4.671875 0l-5.140625 17.671875q-0.84375 2.84375 -0.84375 3.6875q0 0.5 0.234375 0.78125q0.25 0.265625 0.578125 0.265625q0.75 0 1.96875 -1.046875q0.71875 -0.609375 3.203125 -3.6875l1.0 0.75q-2.765625 4.015625 -5.21875 5.65625q-1.671875 1.140625 -3.375 1.140625q-1.328125 0 -2.171875 -0.8125q-0.828125 -0.828125 -0.828125 -2.125q0 -1.609375 0.953125 -4.9375l5.0 -17.34375l-4.515625 0l0.296875 -1.15625q3.296875 -0.90625 5.484375 -2.6875q2.1875 -1.78125 4.875 -6.1875l1.328125 0zm29.88269 7.4375l-5.84375 20.296875l-0.65625 2.71875q-0.09375 0.390625 -0.09375 0.671875q0 0.46875 0.296875 0.828125q0.25 0.265625 0.609375 0.265625q0.390625 0 1.015625 -0.46875q1.171875 -0.875 3.109375 -3.59375l1.015625 0.71875q-2.0625 3.109375 -4.25 4.75q-2.1875 1.625 -4.046875 1.625q-1.28125 0 -1.921875 -0.640625q-0.640625 -0.640625 -0.640625 -1.875q0 -1.46875 0.65625 -3.859375l0.625 -2.25q-3.921875 5.125 -7.21875 7.15625q-2.359375 1.46875 -4.640625 1.46875q-2.1875 0 -3.78125 -1.8125q-1.578125 -1.8125 -1.578125 -4.984375q0 -4.765625 2.859375 -10.046875q2.859375 -5.28125 7.265625 -8.453125q3.4375 -2.515625 6.5 -2.515625q1.828125 0 3.03125 0.953125q1.21875 0.953125 1.84375 3.171875l1.078125 -3.40625l4.765625 -0.71875zm-10.671875 1.546875q-1.90625 0 -4.0625 1.796875q-3.0625 2.546875 -5.4375 7.546875q-2.375 5.0 -2.375 9.046875q0 2.03125 1.015625 3.21875q1.015625 1.1875 2.328125 1.1875q3.265625 0 7.09375 -4.828125q5.125 -6.40625 5.125 -13.140625q0 -2.546875 -0.984375 -3.6875q-0.984375 -1.140625 -2.703125 -1.140625z" fill-rule="nonzero"/><path fill="#000000" d="m1380.4633 63.926872q-4.21875 3.265625 -5.296875 3.78125q-1.609375 0.734375 -3.4375 0.734375q-2.84375 0 -4.6875 -1.9375q-1.84375 -1.953125 -1.84375 -5.125q0 -2.0 0.890625 -3.46875q1.234375 -2.046875 4.265625 -3.828125q3.046875 -1.796875 10.109375 -4.375l0 -1.078125q0 -4.109375 -1.296875 -5.625q-1.296875 -1.53125 -3.78125 -1.53125q-1.890625 0 -3.0 1.015625q-1.140625 1.015625 -1.140625 2.328125l0.0625 1.734375q0 1.390625 -0.703125 2.140625q-0.703125 0.734375 -1.84375 0.734375q-1.109375 0 -1.8125 -0.765625q-0.703125 -0.78125 -0.703125 -2.125q0 -2.578125 2.625 -4.734375q2.640625 -2.15625 7.40625 -2.15625q3.65625 0 5.984375 1.21875q1.765625 0.9375 2.609375 2.90625q0.546875 1.296875 0.546875 5.28125l0 9.3125q0 3.921875 0.140625 4.8125q0.15625 0.875 0.5 1.171875q0.34375 0.296875 0.796875 0.296875q0.46875 0 0.828125 -0.203125q0.625 -0.390625 2.421875 -2.1875l0 1.671875q-3.34375 4.484375 -6.40625 4.484375q-1.46875 0 -2.34375 -1.015625q-0.859375 -1.015625 -0.890625 -3.46875zm0 -1.953125l0 -10.4375q-4.515625 1.796875 -5.828125 2.53125q-2.375 1.328125 -3.390625 2.765625q-1.015625 1.4375 -1.015625 3.140625q0 2.15625 1.28125 3.578125q1.296875 1.421875 2.96875 1.421875q2.28125 0 5.984375 -3.0zm19.673462 -16.515625q4.828125 -5.8125 9.203125 -5.8125q2.234375 0 3.84375 1.125q1.625 1.109375 2.59375 3.6875q0.65625 1.796875 0.65625 5.515625l0 11.703125q0 2.609375 0.421875 3.53125q0.328125 0.75 1.0625 1.171875q0.734375 0.421875 2.703125 0.421875l0 1.078125l-13.5625 0l0 -1.078125l0.5625 0q1.921875 0 2.6875 -0.578125q0.765625 -0.59375 1.0625 -1.734375q0.125 -0.4375 0.125 -2.8125l0 -11.21875q0 -3.75 -0.984375 -5.4375q-0.96875 -1.703125 -3.265625 -1.703125q-3.5625 0 -7.109375 3.90625l0 14.453125q0 2.796875 0.328125 3.453125q0.421875 0.859375 1.15625 1.265625q0.734375 0.40625 2.984375 0.40625l0 1.078125l-13.5625 0l0 -1.078125l0.59375 0q2.09375 0 2.828125 -1.0625q0.734375 -1.0625 0.734375 -4.0625l0 -10.171875q0 -4.953125 -0.234375 -6.03125q-0.21875 -1.078125 -0.6875 -1.453125q-0.453125 -0.390625 -1.234375 -0.390625q-0.84375 0 -2.0 0.4375l-0.453125 -1.078125l8.265625 -3.34375l1.28125 0l0 5.8125zm42.054688 19.34375q-2.015625 2.09375 -3.9375 3.015625q-1.90625 0.90625 -4.125 0.90625q-4.484375 0 -7.84375 -3.75q-3.359375 -3.765625 -3.359375 -9.671875q0 -5.890625 3.71875 -10.78125q3.71875 -4.90625 9.546875 -4.90625q3.625 0 6.0 2.296875l0 -5.046875q0 -4.703125 -0.234375 -5.78125q-0.21875 -1.078125 -0.703125 -1.46875q-0.46875 -0.390625 -1.1875 -0.390625q-0.78125 0 -2.078125 0.46875l-0.390625 -1.046875l8.1875 -3.34375l1.34375 0l0 31.703125q0 4.828125 0.21875 5.890625q0.234375 1.0625 0.71875 1.484375q0.5 0.421875 1.15625 0.421875q0.8125 0 2.15625 -0.515625l0.328125 1.046875l-8.140625 3.390625l-1.375 0l0 -3.921875zm0 -2.109375l0 -14.125q-0.1875 -2.03125 -1.09375 -3.703125q-0.890625 -1.6875 -2.375 -2.53125q-1.484375 -0.859375 -2.890625 -0.859375q-2.625 0 -4.703125 2.359375q-2.71875 3.109375 -2.71875 9.109375q0 6.046875 2.625 9.265625q2.640625 3.21875 5.875 3.21875q2.734375 0 5.28125 -2.734375z" fill-rule="nonzero"/><path fill="#000000" d="m1485.0625 41.504997l-0.546875 1.96875l-4.359375 0l-3.296875 13.09375q-2.1875 8.640625 -4.40625 13.375q-3.140625 6.6875 -6.765625 9.234375q-2.75 1.9375 -5.515625 1.9375q-1.796875 0 -3.046875 -1.078125q-0.9375 -0.75 -0.9375 -1.9375q0 -0.96875 0.765625 -1.671875q0.765625 -0.703125 1.875 -0.703125q0.8125 0 1.375 0.5q0.546875 0.515625 0.546875 1.171875q0 0.671875 -0.625 1.234375q-0.484375 0.421875 -0.484375 0.625q0 0.28125 0.203125 0.421875q0.28125 0.21875 0.84375 0.21875q1.28125 0 2.703125 -0.8125q1.421875 -0.8125 2.53125 -2.421875q1.109375 -1.59375 2.09375 -4.625q0.421875 -1.25 2.25 -8.28125l5.21875 -20.28125l-5.21875 0l0.421875 -1.96875q2.484375 0 3.46875 -0.34375q1.0 -0.359375 1.8125 -1.328125q0.828125 -0.96875 2.140625 -3.640625q1.765625 -3.59375 3.390625 -5.5625q2.21875 -2.671875 4.65625 -4.0q2.4375 -1.328125 4.59375 -1.328125q2.28125 0 3.65625 1.15625q1.375 1.140625 1.375 2.5q0 1.046875 -0.6875 1.765625q-0.6875 0.71875 -1.765625 0.71875q-0.921875 0 -1.515625 -0.53125q-0.578125 -0.546875 -0.578125 -1.296875q0 -0.484375 0.390625 -1.1875q0.390625 -0.703125 0.390625 -0.9375q0 -0.421875 -0.28125 -0.640625q-0.390625 -0.296875 -1.125 -0.296875q-1.890625 0 -3.390625 1.203125q-2.0 1.578125 -3.59375 4.96875q-0.8125 1.765625 -2.96875 8.78125l4.40625 0zm27.742065 0l-5.21875 17.84375q-1.171875 3.984375 -1.171875 5.03125q0 0.53125 0.1875 0.796875q0.203125 0.25 0.53125 0.25q0.515625 0 1.125 -0.46875q0.609375 -0.46875 3.109375 -3.703125l0.890625 0.703125q-2.359375 3.734375 -4.84375 5.5q-1.65625 1.140625 -3.1875 1.140625q-1.15625 0 -1.828125 -0.65625q-0.65625 -0.65625 -0.65625 -1.703125q0 -1.03125 0.390625 -2.703125q0.484375 -2.21875 2.734375 -9.640625q-5.09375 8.359375 -8.53125 11.53125q-3.421875 3.171875 -6.359375 3.171875q-1.375 0 -2.34375 -0.953125q-0.953125 -0.96875 -0.953125 -2.4375q0 -2.234375 1.328125 -6.875l2.59375 -9.265625q0.96875 -3.3125 0.96875 -4.125q0 -0.359375 -0.265625 -0.609375q-0.25 -0.265625 -0.546875 -0.265625q-0.625 0 -1.265625 0.453125q-0.625 0.453125 -2.84375 3.328125l-0.921875 -0.65625q2.25 -3.484375 4.765625 -5.125q1.90625 -1.28125 3.53125 -1.28125q1.109375 0 1.8125 0.703125q0.703125 0.703125 0.703125 1.8125q0 1.609375 -1.203125 5.765625l-2.8125 9.671875q-1.171875 3.953125 -1.171875 5.015625q0 0.5625 0.375 0.90625q0.375 0.34375 1.0 0.34375q1.0 0 2.578125 -0.984375q1.59375 -0.984375 4.234375 -4.390625q2.65625 -3.40625 4.375 -6.375q1.71875 -2.984375 3.671875 -9.484375l0.65625 -2.265625l4.5625 0zm15.3203125 -0.71875l-3.984375 13.625q5.609375 -8.359375 8.578125 -10.984375q2.984375 -2.640625 5.734375 -2.640625q1.5 0 2.46875 0.984375q0.984375 0.984375 0.984375 2.578125q0 1.796875 -0.875 4.78125l-3.65625 12.609375q-0.625 2.1875 -0.625 2.671875q0 0.421875 0.234375 0.703125q0.25 0.28125 0.515625 0.28125q0.359375 0 0.875 -0.390625q1.578125 -1.25 3.46875 -3.828125l0.921875 0.5625q-2.78125 3.984375 -5.265625 5.6875q-1.734375 1.171875 -3.109375 1.171875q-1.109375 0 -1.765625 -0.671875q-0.65625 -0.671875 -0.65625 -1.8125q0 -1.4375 1.015625 -4.9375l3.46875 -12.046875q0.65625 -2.234375 0.65625 -3.5q0 -0.59375 -0.390625 -0.96875q-0.390625 -0.375 -0.953125 -0.375q-0.84375 0 -2.0 0.71875q-2.21875 1.34375 -4.625 4.453125q-2.390625 3.09375 -5.046875 7.90625q-1.421875 2.546875 -2.34375 5.578125l-1.5 4.9375l-4.484375 0l5.453125 -18.75q0.953125 -3.375 0.953125 -4.0625q0 -0.671875 -0.53125 -1.15625q-0.515625 -0.5 -1.296875 -0.5q-0.359375 0 -1.265625 0.125l-1.125 0.171875l-0.1875 -1.078125l10.359375 -1.84375zm40.820312 20.5625q-3.125 3.75 -6.296875 5.5q-3.171875 1.75 -6.703125 1.75q-4.25 0 -6.640625 -2.390625q-2.375 -2.40625 -2.375 -6.4375q0 -4.59375 2.5625 -9.015625q2.5625 -4.4375 6.890625 -7.203125q4.328125 -2.765625 8.484375 -2.765625q3.265625 0 4.875 1.359375q1.625 1.359375 1.625 3.328125q0 1.859375 -1.140625 3.1875q-0.84375 1.015625 -2.0625 1.015625q-0.9375 0 -1.546875 -0.59375q-0.609375 -0.609375 -0.609375 -1.5q0 -0.578125 0.21875 -1.046875q0.234375 -0.484375 0.9375 -1.15625q0.703125 -0.671875 0.84375 -0.96875q0.15625 -0.3125 0.15625 -0.640625q0 -0.625 -0.578125 -1.046875q-0.859375 -0.59375 -2.453125 -0.59375q-2.9375 0 -5.8125 2.0625q-2.875 2.0625 -4.90625 5.875q-2.453125 4.609375 -2.453125 9.21875q0 3.046875 1.734375 4.84375q1.734375 1.78125 4.734375 1.78125q2.296875 0 4.5625 -1.15625q2.265625 -1.15625 5.078125 -4.1875l0.875 0.78125zm19.470337 -28.0l-2.34375 8.15625l4.703125 0l-0.515625 1.875l-4.671875 0l-5.140625 17.671875q-0.84375 2.84375 -0.84375 3.6875q0 0.5 0.234375 0.78125q0.25 0.265625 0.578125 0.265625q0.75 0 1.96875 -1.046875q0.71875 -0.609375 3.203125 -3.6875l1.0 0.75q-2.765625 4.015625 -5.21875 5.65625q-1.671875 1.140625 -3.375 1.140625q-1.328125 0 -2.171875 -0.8125q-0.828125 -0.828125 -0.828125 -2.125q0 -1.609375 0.953125 -4.9375l5.0 -17.34375l-4.515625 0l0.296875 -1.15625q3.296875 -0.90625 5.484375 -2.6875q2.1875 -1.78125 4.875 -6.1875l1.328125 0zm14.82019 -4.453125q1.25 0 2.109375 0.875q0.875 0.859375 0.875 2.109375q0 1.234375 -0.890625 2.125q-0.875 0.875 -2.09375 0.875q-1.234375 0 -2.125 -0.875q-0.875 -0.890625 -0.875 -2.125q0 -1.25 0.859375 -2.109375q0.875 -0.875 2.140625 -0.875zm0.390625 11.890625l-5.9375 20.984375q-0.59375 2.125 -0.59375 2.546875q0 0.484375 0.28125 0.78125q0.28125 0.296875 0.671875 0.296875q0.453125 0 1.078125 -0.484375q1.703125 -1.34375 3.453125 -3.828125l1.046875 0.6875q-2.046875 3.109375 -4.796875 5.234375q-2.03125 1.59375 -3.890625 1.59375q-1.234375 0 -2.015625 -0.734375q-0.765625 -0.734375 -0.765625 -1.84375q0 -1.109375 0.75 -3.6875l3.890625 -13.40625q0.953125 -3.296875 0.953125 -4.140625q0 -0.65625 -0.46875 -1.0625q-0.453125 -0.421875 -1.265625 -0.421875q-0.65625 0 -2.734375 0.328125l0 -1.171875l10.34375 -1.671875zm31.28894 9.359375q0 4.5 -2.390625 8.90625q-2.375 4.390625 -6.625 6.96875q-4.25 2.578125 -8.265625 2.578125q-4.09375 0 -6.6875 -2.609375q-2.59375 -2.625 -2.59375 -6.796875q0 -4.40625 2.53125 -8.828125q2.53125 -4.4375 6.765625 -7.0q4.234375 -2.578125 8.1875 -2.578125q3.953125 0 6.515625 2.609375q2.5625 2.59375 2.5625 6.75zm-4.96875 -2.0625q0 -2.78125 -1.375 -4.265625q-1.359375 -1.484375 -3.515625 -1.484375q-4.390625 0 -8.09375 6.3125q-3.703125 6.296875 -3.703125 12.53125q0 2.84375 1.4375 4.390625q1.4375 1.53125 3.625 1.53125q4.21875 0 7.921875 -6.265625q3.703125 -6.28125 3.703125 -12.75zm20.804688 -7.296875l-3.984375 13.625q5.609375 -8.359375 8.578125 -10.984375q2.984375 -2.640625 5.734375 -2.640625q1.5 0 2.46875 0.984375q0.984375 0.984375 0.984375 2.578125q0 1.796875 -0.875 4.78125l-3.65625 12.609375q-0.625 2.1875 -0.625 2.671875q0 0.421875 0.234375 0.703125q0.25 0.28125 0.515625 0.28125q0.359375 0 0.875 -0.390625q1.578125 -1.25 3.46875 -3.828125l0.921875 0.5625q-2.78125 3.984375 -5.265625 5.6875q-1.734375 1.171875 -3.109375 1.171875q-1.109375 0 -1.765625 -0.671875q-0.65625 -0.671875 -0.65625 -1.8125q0 -1.4375 1.015625 -4.9375l3.46875 -12.046875q0.65625 -2.234375 0.65625 -3.5q0 -0.59375 -0.390625 -0.96875q-0.390625 -0.375 -0.953125 -0.375q-0.84375 0 -2.0 0.71875q-2.21875 1.34375 -4.625 4.453125q-2.390625 3.09375 -5.046875 7.90625q-1.421875 2.546875 -2.34375 5.578125l-1.5 4.9375l-4.484375 0l5.453125 -18.75q0.953125 -3.375 0.953125 -4.0625q0 -0.671875 -0.53125 -1.15625q-0.515625 -0.5 -1.296875 -0.5q-0.359375 0 -1.265625 0.125l-1.125 0.171875l-0.1875 -1.078125l10.359375 -1.84375zm39.382812 0l-1.828125 9.1875l-1.109375 0q-0.140625 -4.015625 -1.703125 -5.84375q-1.5625 -1.828125 -3.859375 -1.828125q-1.859375 0 -2.953125 1.03125q-1.09375 1.015625 -1.09375 2.453125q0 0.984375 0.4375 1.890625q0.4375 0.890625 1.890625 2.5q3.90625 4.25 5.03125 6.40625q1.140625 2.15625 1.140625 4.078125q0 3.109375 -2.59375 5.53125q-2.578125 2.40625 -6.53125 2.40625q-2.15625 0 -4.96875 -1.015625q-1.0 -0.359375 -1.53125 -0.359375q-1.34375 0 -2.046875 1.375l-1.09375 0l1.8125 -9.703125l1.109375 0q0.1875 4.546875 1.890625 6.4375q1.703125 1.890625 4.671875 1.890625q2.28125 0 3.609375 -1.265625q1.328125 -1.28125 1.328125 -3.140625q0 -1.203125 -0.46875 -2.21875q-0.84375 -1.796875 -3.53125 -4.96875q-2.671875 -3.171875 -3.4375 -4.75q-0.765625 -1.59375 -0.765625 -3.1875q0 -2.90625 2.109375 -4.90625q2.109375 -2.0 5.4375 -2.0q0.96875 0 1.734375 0.140625q0.421875 0.09375 1.96875 0.6875q1.546875 0.578125 2.046875 0.578125q1.296875 0 2.15625 -1.40625l1.140625 0z" fill-rule="nonzero"/></g></svg>